<?xml version="1.0" encoding="utf-8"?>
<!-- Generator: Adobe Illustrator 27.6.1, SVG Export Plug-In . SVG Version: 6.00 Build 0)  -->
<svg version="1.1" id="Layer_1" xmlns="http://www.w3.org/2000/svg" xmlns:xlink="http://www.w3.org/1999/xlink" x="0px" y="0px"
	 viewBox="0 0 512 512" style="enable-background:new 0 0 512 512;" xml:space="preserve">
<style type="text/css">
	.st0{fill:#3EBDC7;}
	.st1{fill:#064E64;}
</style>
<path class="st0" d="M420.17,176.31v-63.92c0-33.45-27.11-60.56-60.56-60.56H153.21c-33.45,0-60.56,27.11-60.56,60.56v63.92
	c0,33.45,27.11,60.56,60.56,60.56h206.41C393.06,236.87,420.17,209.76,420.17,176.31z M454.64,349.05
	c-9.41,16.66-26.76,36.38-45.26,58.24s-60.23,53.79-87.76,70.84c-27.53,17.06-69.75,29.17-86.96,33.23s-21.38-12.42-15.48-18
	c5.9-5.58,23.86-25.58,36.14-42.83c12.27-17.25,15.07-33.82,15.4-40.5c0.32-6.68-0.1-10.06-11.82-10.37s-113.41-1.7-113.41-1.7
	c-57.34,0-103.82-46.48-103.82-103.82V103.82C41.66,46.48,88.14,0,145.48,0h221.05c57.34,0,103.82,46.48,103.82,103.82v190.32
	C470.34,314.3,464.59,333.13,454.64,349.05"/>
<circle class="st1" cx="173.63" cy="145.64" r="34.61"/>
<circle class="st1" cx="337.7" cy="145.64" r="34.61"/>
</svg>
